<svg xmlns="http://www.w3.org/2000/svg" viewBox="0 0 765.7537 841.8965">
  <defs></defs>
  <path fill-rule="evenodd" stroke="rgb(0, 0, 0)" stroke-width="3px" stroke-linecap="butt" stroke-linejoin="miter" d="M 567.358 508.962 C 566.348 559.548 611.284 586.573 649.561 556.141 C 675.51 535.511 666 444.12 666.001 396.732 C 666.002 381.718 670.162 354.958 664.572 343.119 C 636.246 332.193 647.114 275.377 685.301 284.502 C 702.622 288.641 717.825 310.13 706.744 330.966 C 703.189 337.653 696.297 340.325 691.019 345.263 C 691.019 388.149 691.019 431.048 691.019 473.934 C 691.02 493.509 694.509 519.927 689.59 536.84 C 683.59 557.467 671.198 574.029 654.565 584.02 C 609.503 611.087 560.228 581.371 545.918 545.418 C 540.358 531.438 541.628 510.56 541.628 491.091 C 541.868 474.651 542.108 458.206 542.348 441.767 C 542.818 442.005 543.298 442.243 543.778 442.482 C 558.548 464.401 573.318 486.327 588.088 508.247 C 588.088 508.485 588.088 508.723 588.088 508.962 C 581.178 508.962 574.268 508.962 567.358 508.962 Z M 676.723 298.799 C 658.723 307.335 655.543 333.44 682.442 332.396 C 698.737 325.442 700.517 298.559 676.723 298.799 Z" style="fill: rgb(93, 93, 93);"></path>
  <path fill-rule="evenodd" stroke-width="3px" stroke-linecap="butt" stroke-linejoin="miter" fill="rgb(255, 250, 231)" d="M 365.498 754.518 L 517.598 824.518 L 624.596 546.519 L 605.0353 537.2377 L 569.3967 518.701 C 569.3967 518.701 572.9318 549.0982 591.6118 559.6708 C 593.073 583.249 577.3224 583.5513 577.3224 583.5513 C 577.3224 583.5513 569.4501 582.0932 560.962 571.8611 C 541.9466 548.9387 541.9019 507.2508 541.9019 507.2508 L 485.498 480.519 L 365.498 754.518 Z" style=""></path>
  <path fill-rule="evenodd" fill="rgb(71, 130, 82)" d="M 359.8809 761.1433 C 359.8809 761.1433 417.178 623.721 444.938 557.318 C 452.978 538.081 481.7717 477.4559 481.7717 477.4559 C 481.7717 477.4559 506.528 488.009 518.928 493.192 C 523.845 495.247 542.162 503.067 542.162 503.067 L 543.3854 524.7494 L 574.8737 537.528 C 568.1227 523.207 569.261 514.229 569.261 514.229 L 596.55 525.634 C 610.485 531.457 638.1345 543.452 638.1345 543.452 C 638.1345 543.452 618.442 593.819 609.607 614.959 C 590.188 661.418 570.768 707.888 551.348 754.348 C 543.698 772.668 522.2781 829.9668 522.2781 829.9668 C 522.2781 829.9668 492.028 818.218 479.628 813.038 C 453.758 802.228 427.878 791.408 402.008 780.598 C 388.078 774.778 359.8809 761.1433 359.8809 761.1433 Z M 395.568 725.188 C 415.068 734.598 411.668 746.708 412.118 764.058 C 422.848 768.718 476.828 794.038 482.818 792.008 C 494.618 779.998 501.538 770.648 520.858 777.548 C 533.318 747.088 545.788 716.618 558.258 686.148 C 526.908 743.958 415.328 697.258 434.338 634.358 C 421.418 664.628 408.488 694.918 395.568 725.188 Z M 602.987 581.041 C 594.995 577.227 591.65 568.979 592.992 565.54 C 593.161 562.098 593.277 562.261 592.615 558.133 C 588.224 558.524 586.165 549.007 587.118 542.459 C 563.198 532.726 539.268 522.991 515.338 513.258 C 508.728 529.365 493.298 534.429 477.698 528.678 C 465.238 559.142 452.768 589.615 440.298 620.079 C 457.798 587.956 513.368 582.347 545.758 614.631 C 563.438 632.252 563.288 647.688 564.908 672.158 C 577.598 641.788 590.298 611.41 602.987 581.041 Z M 455.218 639.888 C 457.328 642.658 459.528 644.208 464.578 646.198 C 462.968 658.838 474.198 678.918 491.068 670.848 C 500.438 666.368 506.668 655.028 516.168 650.988 C 519.958 652.738 520.428 653.638 522.118 655.878 C 521.058 666.978 514.618 672.518 509.678 681.818 C 512.698 684.148 515.728 686.478 518.758 688.808 C 519.818 688.188 520.878 687.568 521.938 686.948 C 525.288 682.758 528.638 678.568 531.988 674.378 C 535.998 676.218 539.278 677.168 542.088 676.998 C 544.158 672.538 545.748 668.108 545.558 664.868 C 542.248 663.218 538.938 661.568 535.628 659.918 C 538.598 646.568 526.858 628.411 509.988 633.23 C 500.808 635.848 491.618 648.918 483.638 654.168 C 481.918 653.178 480.198 652.198 478.478 651.208 C 477.778 641.378 486.128 634.778 488.028 626.448 C 487.578 626.258 487.118 626.068 486.668 625.879 C 483.778 623.871 480.878 621.862 477.988 619.855 C 477.568 620.213 477.158 620.572 476.738 620.93 C 474.128 624.63 471.508 628.331 468.898 632.031 C 465.028 630.271 462.168 629.526 459.478 629.691 C 458.058 633.091 456.638 636.488 455.218 639.888 Z M 451.918 741.548 C 455.028 733.228 459.678 731.048 467.648 734.548 C 468.988 736.438 470.328 738.328 471.668 740.218 C 471.088 742.908 470.498 745.588 469.908 748.268 C 468.018 749.608 466.118 750.948 464.228 752.288 C 461.548 751.698 458.858 751.108 456.168 750.518 C 453.408 747.298 453.068 745.318 451.918 741.548 Z M 526.658 562.72 C 529.768 554.401 534.418 552.219 542.388 555.713 C 543.728 557.605 545.068 559.498 546.418 561.39 C 545.828 564.073 545.238 566.756 544.648 569.439 C 542.758 570.778 540.868 572.117 538.968 573.456 C 536.288 572.865 533.598 572.275 530.908 571.685 C 528.148 568.461 527.808 566.49 526.658 562.72 Z" style=""></path>
  <path fill-rule="evenodd" stroke="rgb(0, 0, 0)" stroke-width="3px" stroke-linecap="butt" stroke-linejoin="miter" fill="rgb(0, 0, 0)" d="M 681.497 293.519 L 672.596 293.519 L 672.596 85.519 L 681.497 85.519 L 681.497 293.519 Z"></path>
  <path fill-rule="evenodd" stroke="rgb(0, 0, 0)" stroke-width="3px" stroke-linecap="butt" stroke-linejoin="miter" fill="rgb(0, 0, 0)" d="M 671.496 271.519 L 683.597 271.519 C 686.706 271.519 687.597 273.31 687.597 275.519 L 687.597 276.519 C 687.597 278.728 686.706 280.519 683.597 280.519 L 671.496 280.519 C 669.287 280.519 667.496 278.728 667.496 276.519 L 667.496 275.519 C 667.496 273.31 669.287 271.519 671.496 271.519 Z"></path>
  <path fill-rule="evenodd" stroke="rgb(0, 0, 0)" stroke-width="3px" stroke-linecap="butt" stroke-linejoin="miter" fill="rgb(0, 0, 0)" d="M 678.309 291.694 L 681.684 291.694 C 683.894 291.694 685.685 293.485 685.685 295.694 L 685.685 301.944 C 685.685 304.153 683.894 305.944 681.684 305.944 L 678.309 305.944 C 676.099 305.944 674.308 304.153 674.308 301.944 L 674.308 295.694 C 674.308 293.485 676.099 291.694 678.309 291.694 Z"></path>
  <path fill-rule="evenodd" stroke="rgb(0, 0, 0)" stroke-width="3px" stroke-linecap="butt" stroke-linejoin="miter" fill="rgb(0, 0, 0)" d="M 671.496 232.519 L 683.597 232.519 C 686.706 232.519 687.597 234.31 687.597 236.519 L 687.597 237.519 C 687.597 239.728 686.706 241.519 683.597 241.519 L 671.496 241.519 C 669.287 241.519 667.496 239.728 667.496 237.519 L 667.496 236.519 C 667.496 234.31 669.287 232.519 671.496 232.519 Z"></path>
  <path fill-rule="evenodd" stroke="rgb(0, 0, 0)" stroke-width="3px" stroke-linecap="butt" stroke-linejoin="miter" fill="rgb(0, 0, 0)" d="M 671.496 245.519 L 683.597 245.519 C 686.706 245.519 687.597 247.31 687.597 249.519 L 687.597 250.519 C 687.597 252.728 686.706 254.519 683.597 254.519 L 671.496 254.519 C 669.287 254.519 667.496 252.728 667.496 250.519 L 667.496 249.519 C 667.496 247.31 669.287 245.519 671.496 245.519 Z"></path>
  <path fill-rule="evenodd" stroke="rgb(0, 0, 0)" stroke-width="3px" stroke-linecap="butt" stroke-linejoin="miter" fill="rgb(0, 0, 0)" d="M 671.496 258.519 L 683.597 258.519 C 686.706 258.519 687.597 260.31 687.597 262.519 L 687.597 263.519 C 687.597 265.728 686.706 267.519 683.597 267.519 L 671.496 267.519 C 669.287 267.519 667.496 265.728 667.496 263.519 L 667.496 262.519 C 667.496 260.31 669.287 258.519 671.496 258.519 Z"></path>
  <path fill-rule="evenodd" stroke="rgb(0, 0, 0)" stroke-width="3px" stroke-linecap="butt" stroke-linejoin="miter" fill="rgb(0, 0, 0)" d="M 671.106 232.443 C 669.616 230.457 657.109 224.043 657.109 224.043 C 656.842 216.177 666.974 225.11 671.905 225.643 C 673.238 227.843 674.572 230.043 675.905 232.243 C 675.371 232.443 674.838 232.643 674.305 232.843"></path>
  <path d="M -551.26 388.19 Q -563.26 388.19 -573.16 384.14 Q -583.06 380.09 -590.41 372.74 Q -597.76 365.39 -601.81 355.49 Q -605.86 345.59 -605.86 333.74 Q -605.86 321.89 -601.81 311.99 Q -597.76 302.09 -590.41 294.74 Q -583.06 287.39 -573.16 283.34 Q -563.26 279.29 -551.41 279.29 Q -539.56 279.29 -529.66 283.34 Q -519.76 287.39 -512.41 294.74 Q -505.06 302.09 -501.085 311.99 Q -497.11 321.89 -497.11 333.74 Q -497.11 345.44 -501.085 355.415 Q -505.06 365.39 -512.41 372.74 Q -519.76 380.09 -529.66 384.14 Q -539.56 388.19 -551.26 388.19 Z M -551.41 364.19 Q -545.26 364.19 -540.085 361.94 Q -534.91 359.69 -531.085 355.565 Q -527.26 351.44 -525.16 345.89 Q -523.06 340.34 -523.06 333.74 Q -523.06 327.14 -525.16 321.59 Q -527.26 316.04 -531.085 311.915 Q -534.91 307.79 -540.085 305.54 Q -545.26 303.29 -551.41 303.29 Q -557.56 303.29 -562.735 305.54 Q -567.91 307.79 -571.81 311.915 Q -575.71 316.04 -577.735 321.59 Q -579.76 327.14 -579.76 333.74 Q -579.76 340.34 -577.735 345.965 Q -575.71 351.59 -571.81 355.64 Q -567.91 359.69 -562.735 361.94 Q -557.56 364.19 -551.41 364.19 Z M -479.8757 386.69 L -479.8757 307.04 L -457.0757 307.04 L -456.3257 323.24 L -461.1257 325.04 Q -459.4757 319.64 -455.2007 315.215 Q -450.9257 310.79 -444.9257 308.09 Q -438.9257 305.39 -432.3257 305.39 Q -423.3257 305.39 -417.1757 309.065 Q -411.0257 312.74 -407.8757 320.015 Q -404.7257 327.29 -404.7257 337.79 L -404.7257 386.69 L -428.8757 386.69 L -428.8757 339.74 Q -428.8757 334.94 -430.2257 331.79 Q -431.5757 328.64 -434.3507 327.065 Q -437.1257 325.49 -441.1757 325.64 Q -444.3257 325.64 -447.0257 326.615 Q -449.7257 327.59 -451.6757 329.465 Q -453.6257 331.34 -454.7507 333.74 Q -455.8757 336.14 -455.8757 338.99 L -455.8757 386.69 L -467.7257 386.69 Q -471.9257 386.69 -474.9257 386.69 Q -477.9257 386.69 -479.8757 386.69 Z M -346.6791 388.19 Q -359.8791 388.19 -369.6291 382.865 Q -379.3791 377.54 -384.7791 368.315 Q -390.1791 359.09 -390.1791 347.24 Q -390.1791 338.09 -387.1791 330.44 Q -384.1791 322.79 -378.7791 317.165 Q -373.3791 311.54 -365.9541 308.465 Q -358.5291 305.39 -349.6791 305.39 Q -341.2791 305.39 -334.3041 308.39 Q -327.3291 311.39 -322.229 316.79 Q -317.129 322.19 -314.429 329.54 Q -311.729 336.89 -312.029 345.59 L -312.179 352.04 L -375.6291 352.04 L -379.0791 338.54 L -331.6791 338.54 L -334.2291 341.39 L -334.2291 338.39 Q -334.5291 334.64 -336.5541 331.715 Q -338.5791 328.79 -341.8791 327.14 Q -345.1791 325.49 -349.3791 325.49 Q -355.2291 325.49 -359.3541 327.815 Q -363.4791 330.14 -365.5791 334.565 Q -367.6791 338.99 -367.6791 345.44 Q -367.6791 352.04 -364.9041 356.915 Q -362.1291 361.79 -356.8041 364.49 Q -351.4791 367.19 -344.1291 367.19 Q -339.0291 367.19 -335.0541 365.69 Q -331.0791 364.19 -326.429 360.59 L -315.179 376.49 Q -319.829 380.54 -325.079 383.09 Q -330.3291 385.64 -335.8041 386.915 Q -341.2791 388.19 -346.6791 388.19 Z" transform="matrix(1.266375, 0, 0, 1.412527, 793.561608, -341.463298)" style="text-wrap-mode: nowrap;"></path>
  <path transform="matrix(1.266375, 0, 0, 1.412527, 793.561608, -341.463298)" style="text-wrap-mode: nowrap;"></path>
  <path d="M -599.11 536.69 L -599.11 431.69 L -555.16 431.69 Q -543.61 431.69 -534.01 435.515 Q -524.41 439.34 -517.435 446.39 Q -510.46 453.44 -506.71 463.04 Q -502.96 472.64 -502.96 484.19 Q -502.96 495.74 -506.71 505.415 Q -510.46 515.09 -517.435 522.065 Q -524.41 529.04 -534.01 532.865 Q -543.61 536.69 -555.16 536.69 Z M -573.61 519.29 L -577.06 514.19 L -555.91 514.19 Q -549.61 514.19 -544.66 512.015 Q -539.71 509.84 -536.185 505.94 Q -532.66 502.04 -530.71 496.49 Q -528.76 490.94 -528.76 484.19 Q -528.76 477.44 -530.71 471.89 Q -532.66 466.34 -536.185 462.44 Q -539.71 458.54 -544.66 456.365 Q -549.61 454.19 -555.91 454.19 L -577.51 454.19 L -573.61 449.39 Z M -448.3754 538.19 Q -460.8254 538.19 -470.5004 532.79 Q -480.1754 527.39 -485.8004 518.09 Q -491.4254 508.79 -491.4254 496.79 Q -491.4254 484.79 -485.8004 475.49 Q -480.1754 466.19 -470.5004 460.79 Q -460.8254 455.39 -448.3754 455.39 Q -435.9254 455.39 -426.2504 460.79 Q -416.5754 466.19 -411.0254 475.49 Q -405.4754 484.79 -405.4754 496.79 Q -405.4754 508.79 -411.0254 518.09 Q -416.5754 527.39 -426.2504 532.79 Q -435.9254 538.19 -448.3754 538.19 Z M -448.3754 517.49 Q -442.9754 517.49 -438.7754 514.79 Q -434.5754 512.09 -432.1754 507.44 Q -429.7754 502.79 -429.9254 496.79 Q -429.7754 490.79 -432.1754 486.065 Q -434.5754 481.34 -438.7754 478.64 Q -442.9754 475.94 -448.3754 475.94 Q -453.7754 475.94 -458.0504 478.64 Q -462.3254 481.34 -464.7254 486.065 Q -467.1254 490.79 -466.9754 496.79 Q -467.1254 502.79 -464.7254 507.44 Q -462.3254 512.09 -458.0504 514.79 Q -453.7754 517.49 -448.3754 517.49 Z M -389.5744 536.69 L -389.5744 425.69 L -365.5744 425.69 L -365.5744 536.69 Z M -343.9771 536.69 L -343.9771 425.69 L -319.9771 425.69 L -319.9771 536.69 Z M -270.6253 538.04 Q -280.6753 538.04 -288.5503 532.715 Q -296.4253 527.39 -301.0753 518.015 Q -305.7253 508.64 -305.7253 496.79 Q -305.7253 484.64 -301.0753 475.34 Q -296.4253 466.04 -288.3253 460.715 Q -280.2253 455.39 -269.8753 455.39 Q -264.1753 455.39 -259.4503 457.04 Q -254.7253 458.69 -251.1253 461.615 Q -247.5253 464.54 -244.9753 468.365 Q -242.4253 472.19 -241.2253 476.54 L -246.1753 475.94 L -246.1753 457.04 L -222.3253 457.04 L -222.3253 536.69 L -246.6253 536.69 L -246.6253 517.49 L -241.2253 517.34 Q -242.4253 521.54 -245.1253 525.29 Q -247.8253 529.04 -251.7253 531.89 Q -255.6253 534.74 -260.4253 536.39 Q -265.2253 538.04 -270.6253 538.04 Z M -264.0253 517.79 Q -258.4753 517.79 -254.4253 515.24 Q -250.3753 512.69 -248.1253 507.965 Q -245.8753 503.24 -245.8753 496.79 Q -245.8753 490.34 -248.1253 485.615 Q -250.3753 480.89 -254.4253 478.265 Q -258.4753 475.64 -264.0253 475.64 Q -269.4253 475.64 -273.4003 478.265 Q -277.3753 480.89 -279.6253 485.615 Q -281.8753 490.34 -281.8753 496.79 Q -281.8753 503.24 -279.6253 507.965 Q -277.3753 512.69 -273.4003 515.24 Q -269.4253 517.79 -264.0253 517.79 Z M -201.1788 536.69 L -201.1788 457.04 L -178.3788 457.04 L -177.3288 482.99 L -181.8288 478.04 Q -180.0288 471.59 -175.9038 466.49 Q -171.7788 461.39 -166.2288 458.39 Q -160.6788 455.39 -154.3788 455.39 Q -151.6788 455.39 -149.3538 455.84 Q -147.0288 456.29 -145.0788 456.89 L -151.6788 483.44 Q -153.3288 482.39 -156.1038 481.715 Q -158.8788 481.04 -161.8788 481.04 Q -165.1788 481.04 -168.0288 482.165 Q -170.8788 483.29 -172.8288 485.39 Q -174.7788 487.49 -175.9038 490.34 Q -177.0288 493.19 -177.0288 496.79 L -177.0288 536.69 Z" transform="matrix(1.266375, 0, 0, 1.412527, 793.561608, -341.463298)" style="text-wrap-mode: nowrap;"></path>
  <path transform="matrix(1.266375, 0, 0, 1.412527, 793.561608, -341.463298)" style="text-wrap-mode: nowrap;"></path>
  <path d="M -599.11 686.6899 L -599.11 581.6899 L -573.61 581.6899 L -573.61 686.6899 Z M -587.26 646.4899 L -587.26 625.1899 L -532.96 625.1899 L -532.96 646.4899 Z M -587.26 604.1899 L -587.26 581.6899 L -526.81 581.6899 L -526.81 604.1899 Z M -507.6197 686.6899 L -507.6197 607.0399 L -483.6197 607.0399 L -483.6197 686.6899 Z M -495.6197 591.2899 Q -502.3697 591.2899 -506.1947 588.0649 Q -510.0197 584.8399 -510.0197 578.8399 Q -510.0197 573.4399 -506.1197 569.9899 Q -502.2197 566.5399 -495.6197 566.5399 Q -488.8697 566.5399 -485.1197 569.7649 Q -481.3697 572.9899 -481.3697 578.8399 Q -481.3697 584.3899 -485.1947 587.8399 Q -489.0197 591.2899 -495.6197 591.2899 Z M -434.279 688.1899 Q -445.979 688.1899 -454.904 684.4399 Q -463.829 680.6899 -469.079 674.3899 L -454.529 661.7899 Q -449.879 666.4399 -444.029 668.6149 Q -438.179 670.7899 -432.929 670.7899 Q -430.829 670.7899 -429.179 670.3399 Q -427.529 669.8899 -426.404 669.0649 Q -425.279 668.2399 -424.679 667.1149 Q -424.079 665.9899 -424.079 664.4899 Q -424.079 661.4899 -426.779 659.8399 Q -428.129 659.0899 -431.279 658.0399 Q -434.429 656.9899 -439.379 655.6399 Q -446.429 653.8399 -451.604 651.3649 Q -456.779 648.8899 -460.079 645.5899 Q -463.079 642.4399 -464.729 638.6149 Q -466.379 634.7899 -466.379 629.9899 Q -466.379 624.4399 -463.754 619.9399 Q -461.129 615.4399 -456.704 612.1399 Q -452.279 608.8399 -446.504 607.1149 Q -440.729 605.3899 -434.579 605.3899 Q -427.979 605.3899 -421.979 606.8899 Q -415.979 608.3899 -410.804 611.0899 Q -405.629 613.7899 -401.579 617.5399 L -414.179 631.6399 Q -416.879 629.0899 -420.254 627.0649 Q -423.629 625.0399 -427.229 623.8399 Q -430.829 622.6399 -433.829 622.6399 Q -436.079 622.6399 -437.804 623.0149 Q -439.529 623.3899 -440.729 624.2149 Q -441.929 625.0399 -442.529 626.1649 Q -443.129 627.2899 -443.129 628.7899 Q -443.129 630.2899 -442.304 631.6399 Q -441.479 632.9899 -439.979 633.8899 Q -438.479 634.7899 -435.179 635.9149 Q -431.879 637.0399 -426.179 638.6899 Q -419.129 640.6399 -414.029 643.0399 Q -408.929 645.4399 -405.929 648.7399 Q -403.529 651.2899 -402.329 654.6649 Q -401.129 658.0399 -401.129 661.9399 Q -401.129 669.5899 -405.404 675.5149 Q -409.679 681.4399 -417.179 684.8149 Q -424.679 688.1899 -434.279 688.1899 Z M -386.8724 686.6899 L -386.8724 575.6899 L -363.3224 575.6899 L -363.3224 623.2399 L -368.1224 625.0399 Q -366.4724 619.6399 -362.1974 615.2149 Q -357.9224 610.7899 -351.9224 608.0899 Q -345.9224 605.3899 -339.3224 605.3899 Q -330.3224 605.3899 -324.1724 609.0649 Q -318.0224 612.7399 -314.8724 620.0149 Q -311.7224 627.2899 -311.7224 637.7899 L -311.7224 686.6899 L -335.8724 686.6899 L -335.8724 639.7399 Q -335.8724 634.9399 -337.2224 631.7899 Q -338.5724 628.6399 -341.3474 627.0649 Q -344.1224 625.4899 -348.1724 625.6399 Q -351.3224 625.6399 -354.0224 626.6149 Q -356.7224 627.5899 -358.6724 629.4649 Q -360.6224 631.3399 -361.7474 633.7399 Q -362.8724 636.1399 -362.8724 638.9899 L -362.8724 686.6899 L -374.7224 686.6899 Q -378.9224 686.6899 -381.9224 686.6899 Q -384.9224 686.6899 -386.8724 686.6899 Z" transform="matrix(1.266375, 0, 0, 1.412527, 793.561608, -341.463298)" style="text-wrap-mode: nowrap;"></path>
</svg>
