
<svg 
 xmlns="http://www.w3.org/2000/svg"
 xmlns:xlink="http://www.w3.org/1999/xlink"
 width="665px" height="748.5px">
<path fill-rule="evenodd"  stroke="rgb(0, 0, 0)" stroke-width="3px" stroke-linecap="butt" stroke-linejoin="miter" fill="rgb(0, 0, 0)"
 d="M516.866,426.943 C515.848,477.529 560.788,504.554 599.065,474.122 C625.014,453.492 615.504,362.101 615.505,314.713 C615.506,299.699 619.666,272.939 614.076,261.100 C585.750,250.174 596.618,193.358 634.804,202.483 C652.125,206.622 667.328,228.111 656.247,248.947 C652.692,255.634 645.800,258.306 640.522,263.244 C640.522,306.130 640.522,349.029 640.522,391.915 C640.523,411.490 644.012,437.908 639.093,454.821 C633.093,475.448 620.702,492.010 604.069,502.001 C559.007,529.068 509.728,499.352 495.423,463.399 C489.860,449.419 491.134,428.541 491.134,409.072 C491.372,392.632 491.611,376.187 491.849,359.748 C492.325,359.986 492.802,360.224 493.278,360.463 C508.049,382.382 522.824,404.308 537.595,426.228 C537.595,426.466 537.595,426.704 537.595,426.943 C530.686,426.943 523.775,426.943 516.866,426.943 ZM626.227,216.780 C608.227,225.316 605.047,251.421 631.945,250.377 C648.240,243.423 650.020,216.540 626.227,216.780 Z"/>
<path fill-rule="evenodd"  stroke="rgb(0, 0, 0)" stroke-width="3px" stroke-linecap="butt" stroke-linejoin="miter" fill="rgb(255, 250, 231)"
 d="M315.000,672.500 L467.1000,742.500 L574.1000,464.500 L435.000,398.500 L315.000,672.500 Z"/>
<path fill-rule="evenodd"  fill="rgb(71, 130, 82)"
 d="M311.172,674.529 C338.925,608.126 366.686,541.702 394.439,475.299 C402.479,456.062 417.725,407.098 430.129,397.561 C440.690,398.233 456.031,405.990 468.431,411.173 C494.303,421.986 520.182,432.802 546.054,443.615 C559.989,449.438 579.627,455.400 586.168,464.374 C583.376,484.958 567.946,511.800 559.111,532.940 C539.694,579.400 520.270,625.873 500.853,672.333 C493.200,690.646 479.248,735.559 467.437,744.632 C456.875,743.960 441.535,736.202 429.135,731.020 C403.263,720.207 377.383,709.391 351.512,698.578 C337.577,692.754 317.939,686.793 311.397,677.818 C311.322,676.722 311.247,675.626 311.172,674.529 ZM345.075,643.170 C364.571,652.575 361.173,664.686 361.624,682.037 C372.348,686.703 426.336,712.018 432.326,709.988 C444.122,697.978 451.044,688.633 470.361,695.533 C482.826,665.069 495.296,634.596 507.761,604.132 C476.408,661.937 364.833,615.239 383.837,552.339 C370.917,582.613 357.994,612.896 345.075,643.170 ZM552.491,499.022 C534.444,490.408 534.087,477.829 536.623,460.440 C512.699,450.707 488.767,440.972 464.843,431.239 C458.233,447.346 442.798,452.410 427.205,446.659 C414.739,477.123 402.270,507.596 389.805,538.060 C407.302,505.937 462.874,500.328 495.261,532.612 C512.938,550.233 512.796,565.664 514.410,590.138 C527.102,559.769 539.799,529.391 552.491,499.022 ZM404.720,557.872 C406.834,560.638 409.031,562.185 414.081,564.181 C412.473,576.822 423.703,596.903 440.571,588.831 C449.942,584.346 456.172,573.012 465.669,568.968 C469.464,570.722 469.933,571.616 471.626,573.854 C470.565,584.960 464.125,590.502 459.180,599.803 C462.206,602.133 465.232,604.463 468.257,606.792 C469.317,606.170 470.377,605.548 471.437,604.926 C474.787,600.736 478.139,596.544 481.490,592.354 C485.506,594.198 488.777,595.148 491.591,594.978 C493.658,590.520 495.248,586.085 495.060,582.849 C491.751,581.200 488.441,579.550 485.131,577.901 C488.1000,564.544 476.365,546.392 459.493,551.211 C450.316,553.832 441.119,566.897 433.146,572.149 C431.425,571.163 429.704,570.178 427.983,569.192 C427.286,559.362 435.632,552.759 437.533,544.429 C437.079,544.239 436.625,544.049 436.171,543.860 C433.278,541.852 430.384,539.843 427.491,537.836 C427.074,538.194 426.658,538.553 426.242,538.911 C423.629,542.611 421.015,546.312 418.403,550.012 C414.532,548.252 411.667,547.507 408.982,547.672 C407.562,551.072 406.140,554.473 404.720,557.872 ZM401.424,659.532 C404.533,651.213 409.177,649.032 417.149,652.526 C418.491,654.418 419.834,656.311 421.176,658.203 C420.588,660.885 419.999,663.569 419.411,666.251 C417.519,667.590 415.626,668.929 413.733,670.268 C411.047,669.678 408.361,669.088 405.675,668.498 C402.914,665.274 402.572,663.302 401.424,659.532 ZM476.165,480.701 C479.275,472.382 483.918,470.200 491.891,473.694 C493.233,475.586 494.575,477.479 495.917,479.371 C495.329,482.054 494.741,484.737 494.153,487.420 C492.260,488.759 490.367,490.098 488.475,491.437 C485.789,490.846 483.102,490.256 480.416,489.666 C477.655,486.442 477.313,484.471 476.165,480.701 Z"/>
<text kerning="auto" font-family="Myriad Pro" fill="rgb(0, 0, 0)" font-size="150px" x="0px" y="506.5px"> <tspan dy="-305px"><tspan font-size="150px" font-family="Cooper Std" fill="#000000">One</tspan><tspan x="0px" dy="1.2em">Dollar</tspan><tspan x="0px" dy="1.2em">Fish</tspan> </tspan>
</text>
<path fill-rule="evenodd"  stroke="rgb(0, 0, 0)" stroke-width="3px" stroke-linecap="butt" stroke-linejoin="miter" fill="rgb(0, 0, 0)"
 d="M631.000,211.500 L622.1000,211.500 L622.1000,3.500 L631.000,3.500 L631.000,211.500 Z"/>
<path fill-rule="evenodd"  stroke="rgb(0, 0, 0)" stroke-width="3px" stroke-linecap="butt" stroke-linejoin="miter" fill="rgb(0, 0, 0)"
 d="M621.000,189.500 L633.1000,189.500 C636.209,189.500 637.1000,191.291 637.1000,193.500 L637.1000,194.500 C637.1000,196.709 636.209,198.500 633.1000,198.500 L621.000,198.500 C618.791,198.500 617.000,196.709 617.000,194.500 L617.000,193.500 C617.000,191.291 618.791,189.500 621.000,189.500 Z"/>
<path fill-rule="evenodd"  stroke="rgb(0, 0, 0)" stroke-width="3px" stroke-linecap="butt" stroke-linejoin="miter" fill="rgb(0, 0, 0)"
 d="M627.813,209.675 L631.187,209.675 C633.397,209.675 635.188,211.466 635.188,213.675 L635.188,219.925 C635.188,222.134 633.397,223.925 631.187,223.925 L627.813,223.925 C625.603,223.925 623.812,222.134 623.812,219.925 L623.812,213.675 C623.812,211.466 625.603,209.675 627.813,209.675 Z"/>
<path fill-rule="evenodd"  stroke="rgb(0, 0, 0)" stroke-width="3px" stroke-linecap="butt" stroke-linejoin="miter" fill="rgb(0, 0, 0)"
 d="M621.000,150.500 L633.1000,150.500 C636.209,150.500 637.1000,152.291 637.1000,154.500 L637.1000,155.500 C637.1000,157.709 636.209,159.500 633.1000,159.500 L621.000,159.500 C618.791,159.500 617.000,157.709 617.000,155.500 L617.000,154.500 C617.000,152.291 618.791,150.500 621.000,150.500 Z"/>
<path fill-rule="evenodd"  stroke="rgb(0, 0, 0)" stroke-width="3px" stroke-linecap="butt" stroke-linejoin="miter" fill="rgb(0, 0, 0)"
 d="M621.000,163.500 L633.1000,163.500 C636.209,163.500 637.1000,165.291 637.1000,167.500 L637.1000,168.500 C637.1000,170.709 636.209,172.500 633.1000,172.500 L621.000,172.500 C618.791,172.500 617.000,170.709 617.000,168.500 L617.000,167.500 C617.000,165.291 618.791,163.500 621.000,163.500 Z"/>
<path fill-rule="evenodd"  stroke="rgb(0, 0, 0)" stroke-width="3px" stroke-linecap="butt" stroke-linejoin="miter" fill="rgb(0, 0, 0)"
 d="M621.000,176.500 L633.1000,176.500 C636.209,176.500 637.1000,178.291 637.1000,180.500 L637.1000,181.500 C637.1000,183.709 636.209,185.500 633.1000,185.500 L621.000,185.500 C618.791,185.500 617.000,183.709 617.000,181.500 L617.000,180.500 C617.000,178.291 618.791,176.500 621.000,176.500 Z"/>
<path fill-rule="evenodd"  stroke="rgb(0, 0, 0)" stroke-width="3px" stroke-linecap="butt" stroke-linejoin="miter" fill="rgb(0, 0, 0)"
 d="M620.610,150.424 C619.120,148.438 606.613,142.024 606.613,142.024 C606.346,134.158 616.478,143.091 621.409,143.624 C622.742,145.824 624.076,148.024 625.409,150.224 C624.875,150.424 624.342,150.624 623.809,150.824 "/>
</svg>
